<svg xmlns="http://www.w3.org/2000/svg"><symbol xmlns="http://www.w3.org/2000/svg" viewBox="0 0 24 24" fill="none" id="chocobite"><path d="m2.958 15.057 8.083-13.068.48-.506 6.176 4.118.043 2.486 1.507 2.46-6.66 10.557-9.629-6.047Z" fill="#FCF1E0"/><path d="m16.226 17.91-10.64-6.648m2.935-4.813 10.639 6.648M7.972 19.398l8.802-14.437m3.608 6.13c-2.28-1.424-3.175-2.537-1.708-4.943l-7.22-4.512-8.801 14.438 10.64 6.648 7.09-11.63Z" stroke="#FD9222" stroke-width="2" stroke-linecap="round" stroke-linejoin="round"/></symbol><symbol xmlns="http://www.w3.org/2000/svg" viewBox="0 0 24 24" fill="none" id="instagram"><path d="M17 2H7a5 5 0 0 0-5 5v10a5 5 0 0 0 5 5h10a5 5 0 0 0 5-5V7a5 5 0 0 0-5-5Z" stroke="#111" stroke-width="2" stroke-linecap="round" stroke-linejoin="round"/><path d="M16 11.37a4 4 0 1 1-7.913 1.174A4 4 0 0 1 16 11.37Z" stroke="#111" stroke-width="2" stroke-linecap="round" stroke-linejoin="round"/><path d="M16 11.37a4 4 0 1 1-7.913 1.174A4 4 0 0 1 16 11.37ZM17.5 6.5h.01M17.5 6.5h.01" stroke="#111" stroke-width="2" stroke-linecap="round" stroke-linejoin="round"/></symbol><symbol xmlns="http://www.w3.org/2000/svg" viewBox="0 0 24 24" fill="none" id="twitter"><path d="M23 3a10.9 10.9 0 0 1-3.14 1.53 4.48 4.48 0 0 0-7.86 3v1a10.66 10.66 0 0 1-5.069-1.135c-1.57-.79-3.42-2.672-4.431-4.11C2.5 3.285-1 13 8 17a11.64 11.64 0 0 1-7 2c9 5 20 0 20-11.5 0-.279-.028-.556-.08-.83A7.72 7.72 0 0 0 23 3Z" stroke="#111" stroke-width="2" stroke-linecap="round" stroke-linejoin="round"/></symbol><svg xmlns="http://www.w3.org/2000/svg" width="32" height="32" viewBox="0 0 32 32" fill="none" id="chocolate"><path d="m13.822 2.413 7.527 7.536.08-.08a.856.856 0 0 1 1.184-.013l.006.006.867.867c.305.305.315.77.083 1.094l-.004.007-.143.192 6.16 6.16c.55.55.55 1.43 0 1.98l-9.43 9.43c-.55.55-1.43.55-1.98 0l-4.447-4.447a.841.841 0 0 1-1.256.071l-2.6-2.6a.856.856 0 0 1-.013-1.184l.006-.007.077-.076-7.527-7.527c-.55-.55-.55-1.43 0-1.98l9.43-9.43c.55-.55 1.43-.55 1.98 0v.001Zm6.582 8.48-1.756-1.755a.592.592 0 0 0-.85 0l-3.58 3.58a.606.606 0 0 0 0 .86l1.749 1.749.61-.61-1.565-1.565 3.21-3.22 1.569 1.574.613-.613Zm-5.076 5.072-1.754-1.754a.592.592 0 0 0-.85 0l-3.58 3.58-.005.005-.005.005c-.24.23-.24.61 0 .85l1.752 1.752.616-.616-1.57-1.564 3.22-3.21 1.564 1.563.612-.611ZM8.822 8.193l3.58 3.58c.24.24.62.24.85-.01l3.58-3.58a.579.579 0 0 0 .18-.42h.01c0-.15-.06-.31-.18-.43l-3.58-3.58a.604.604 0 0 0-.86 0l-3.58 3.59c-.24.23-.24.61 0 .85Zm-5.07 5.07 3.58 3.58c.24.24.62.24.85 0l3.58-3.58a.58.58 0 0 0 .18-.43h.01c0-.16-.06-.31-.18-.43l-3.58-3.58a.592.592 0 0 0-.85 0l-3.59 3.59c-.24.23-.24.61 0 .85Zm6.933 8.754 2.362 2.363 9.636-13.04-.655-.655-11.343 11.332Z" fill="#000"/><path d="m13.822 2.413 7.527 7.536.08-.08a.856.856 0 0 1 1.184-.013l.006.006.867.867c.305.305.315.77.083 1.094l-.004.007-.143.192 6.16 6.16c.55.55.55 1.43 0 1.98l-9.43 9.43c-.55.55-1.43.55-1.98 0l-4.447-4.447a.841.841 0 0 1-1.256.071l-2.6-2.6a.856.856 0 0 1-.013-1.184l.006-.007.077-.076-7.527-7.527c-.55-.55-.55-1.43 0-1.98l9.43-9.43c.55-.55 1.43-.55 1.98 0v.001Zm6.582 8.48-1.756-1.755a.592.592 0 0 0-.85 0l-3.58 3.58a.606.606 0 0 0 0 .86l1.749 1.749.61-.61-1.565-1.565 3.21-3.22 1.569 1.574.613-.613Zm-5.076 5.072-1.754-1.754a.592.592 0 0 0-.85 0l-3.58 3.58-.005.005-.005.005c-.24.23-.24.61 0 .85l1.752 1.752.616-.616-1.57-1.564 3.22-3.21 1.564 1.563.612-.611ZM8.822 8.193l3.58 3.58c.24.24.62.24.85-.01l3.58-3.58a.579.579 0 0 0 .18-.42h.01c0-.15-.06-.31-.18-.43l-3.58-3.58a.604.604 0 0 0-.86 0l-3.58 3.59c-.24.23-.24.61 0 .85Zm-5.07 5.07 3.58 3.58c.24.24.62.24.85 0l3.58-3.58a.58.58 0 0 0 .18-.43h.01c0-.16-.06-.31-.18-.43l-3.58-3.58a.592.592 0 0 0-.85 0l-3.59 3.59c-.24.23-.24.61 0 .85Zm6.933 8.754 2.362 2.363 9.636-13.04-.655-.655-11.343 11.332Z" fill="#FD9222"/><symbol xmlns="http://www.w3.org/2000/svg" viewBox="0 0 28 28" fill="none" id="coin"><path d="M14 .667C6.667.667.667 6.667.667 14s6 13.333 13.333 13.333 13.333-6 13.333-13.333S21.333.667 14 .667Zm0 24c-5.867 0-10.667-4.8-10.667-10.667S8.133 3.333 14 3.333c5.866 0 10.666 4.8 10.666 10.667S19.866 24.667 14 24.667Z" fill="#FD9222"/><path d="M15.733 12.667h-3.466c-.667 0-1.2-.534-1.2-1.2 0-.667.533-1.2 1.2-1.2H17.2c.8 0 1.333-.534 1.333-1.334S18 7.6 17.2 7.6h-1.867V6.4c0-.8-.533-1.333-1.333-1.333-.8 0-1.333.533-1.333 1.333v1.2h-.4A3.87 3.87 0 0 0 8.4 11.467a3.87 3.87 0 0 0 3.867 3.866H15.6c.667 0 1.2.534 1.2 1.2 0 .667-.533 1.2-1.2 1.2h-4.933c-.8 0-1.334.534-1.334 1.334s.534 1.333 1.334 1.333h2v1.2c0 .8.533 1.333 1.333 1.333.8 0 1.333-.533 1.333-1.333v-1.2h.4a3.87 3.87 0 0 0 3.867-3.867 3.87 3.87 0 0 0-3.867-3.866Z" fill="#FD9222"/></symbol><symbol xmlns="http://www.w3.org/2000/svg" viewBox="0 0 32 32" fill="none" id="spoon"><path d="M15.451 14.106a5.156 5.156 0 0 1-1.176-3.282c0-4.324 5.18-8.642 10.362-8.642a5.183 5.183 0 0 1 5.181 5.182c0 5.182-4.318 10.364-8.646 10.364a5.154 5.154 0 0 1-3.281-1.177L5.132 29.312a1.73 1.73 0 0 1-2.444-2.445L15.45 14.106Z" fill="#FD9222"/><symbol xmlns="http://www.w3.org/2000/svg" viewBox="0 0 22 22" fill="none" id="arrowbig"><path d="M11.651 12.283a.916.916 0 0 1-1.301 0L6.15 8.076A.917.917 0 1 0 4.85 9.368l4.207 4.208a2.75 2.75 0 0 0 3.887 0l4.207-4.208a.916.916 0 0 0-1.301-1.292l-4.199 4.207Z" fill="#FD9222"/><symbol xmlns="http://www.w3.org/2000/svg" viewBox="0 0 16 16" fill="none" id="arrowsmall"><path d="M8.473 8.934a.667.667 0 0 1-.947 0l-3.053-3.06a.667.667 0 1 0-.947.94l3.06 3.06a2 2 0 0 0 2.827 0l3.06-3.06a.667.667 0 0 0-.947-.94l-3.053 3.06Z" fill="#FD9222"/></symbol><svg xmlns="http://www.w3.org/2000/svg" width="22" height="22" viewBox="0 0 22 22" fill="none" id="arrowwhite"><path d="M11.651 12.283a.916.916 0 0 1-1.301 0L6.15 8.076A.917.917 0 1 0 4.85 9.368l4.207 4.208a2.75 2.75 0 0 0 3.887 0l4.207-4.208a.916.916 0 0 0-1.301-1.292l-4.199 4.207Z" fill="#fff"/></svg><symbol xmlns="http://www.w3.org/2000/svg" viewBox="0 0 28 28" fill="none" id="xblack"><path d="M21 7 7 21M7 7l14 14" stroke="#111" stroke-width="2" stroke-linecap="round" stroke-linejoin="round"/></symbol><symbol xmlns="http://www.w3.org/2000/svg" viewBox="0 0 28 28" fill="none" id="xorange"><path d="M21 7 7 21M7 7l14 14" stroke="#FD9222" stroke-width="2" stroke-linecap="round" stroke-linejoin="round"/></symbol><symbol xmlns="http://www.w3.org/2000/svg" viewBox="0 0 32 32" fill="none" id="hamburgerthick"><path d="M4 16h24M4 8h24M4 24h24" stroke="#111" stroke-width="2.5" stroke-linecap="round" stroke-linejoin="round"/></symbol><symbol xmlns="http://www.w3.org/2000/svg" viewBox="0 0 28 28" fill="none" id="hamburgerthin"><path d="M3.5 14h21m-21-7h21m-21 14h21" stroke="#111" stroke-width="2" stroke-linecap="round" stroke-linejoin="round"/></symbol></symbol></symbol></svg></svg>