<svg xmlns="http://www.w3.org/2000/svg">

    <symbol xmlns="http://www.w3.org/2000/svg" width="24" height="24" viewBox="0 0 24 24" fill="none" id="chocobite">
        <path d="M2.95799 15.0568L11.0406 1.9886L11.5206 1.48303L17.6974 5.6014L17.7397 8.08665L19.2472 10.5463L12.5874 21.1038L2.95799 15.0568Z" fill="#FCF1E0"/>
        <path d="M16.2259 17.9097L5.5868 11.2616M8.52069 6.44905L19.1598 13.0971M7.97248 19.3982L16.7742 4.96051M20.3823 11.0919C18.1025 9.6673 17.2071 8.55395 18.674 6.14767L11.4546 1.63647L2.6529 16.0742L13.2921 22.7223L20.3823 11.0919Z" stroke="#FD9222" stroke-width="2" stroke-linecap="round" stroke-linejoin="round"/>
        </symbol>

    <symbol xmlns="http://www.w3.org/2000/svg" width="24" height="24" viewBox="0 0 24 24" fill="none" id="instagram">
        <path d="M17 2H7C4.23858 2 2 4.23858 2 7V17C2 19.7614 4.23858 22 7 22H17C19.7614 22 22 19.7614 22 17V7C22 4.23858 19.7614 2 17 2Z" stroke="#111111" stroke-width="2" stroke-linecap="round" stroke-linejoin="round"/>
         <path d="M16.0002 11.3701C16.1236 12.2023 15.9815 13.0523 15.594 13.7991C15.2065 14.5459 14.5933 15.1515 13.8418 15.5297C13.0903 15.908 12.2386 16.0397 11.408 15.906C10.5773 15.7723 9.80996 15.3801 9.21503 14.7852C8.62011 14.1903 8.22793 13.4229 8.09426 12.5923C7.9606 11.7616 8.09226 10.91 8.47052 10.1584C8.84878 9.40691 9.45438 8.7938 10.2012 8.4063C10.948 8.0188 11.7979 7.87665 12.6302 8.00006C13.4791 8.12594 14.265 8.52152 14.8719 9.12836C15.4787 9.73521 15.8743 10.5211 16.0002 11.3701Z" stroke="#111111" stroke-width="2" stroke-linecap="round" stroke-linejoin="round"/>
        <path d="M16.0002 11.3701C16.1236 12.2023 15.9815 13.0523 15.594 13.7991C15.2065 14.5459 14.5933 15.1515 13.8418 15.5297C13.0903 15.908 12.2386 16.0397 11.408 15.906C10.5773 15.7723 9.80996 15.3801 9.21503 14.7852C8.62011 14.1903 8.22793 13.4229 8.09426 12.5923C7.9606 11.7616 8.09226 10.91 8.47052 10.1584C8.84878 9.40691 9.45438 8.7938 10.2012 8.4063C10.948 8.0188 11.7979 7.87665 12.6302 8.00006C13.4791 8.12594 14.265 8.52152 14.8719 9.12836C15.4787 9.73521 15.8743 10.5211 16.0002 11.3701Z" stroke="#111111" stroke-width="2" stroke-linecap="round" stroke-linejoin="round"/>
        <path d="M17.5 6.5H17.51" stroke="#111111" stroke-width="2" stroke-linecap="round" stroke-linejoin="round"/>
        <path d="M17.5 6.5H17.51" stroke="#111111" stroke-width="2" stroke-linecap="round" stroke-linejoin="round"/>
    </symbol>

    <symbol xmlns="http://www.w3.org/2000/svg" width="24" height="24" viewBox="0 0 24 24" fill="none" id="twitter">
        <path d="M23 3.00005C22.0424 3.67552 20.9821 4.19216 19.86 4.53005C19.2577 3.83756 18.4573 3.34674 17.567 3.12397C16.6767 2.90121 15.7395 2.95724 14.8821 3.2845C14.0247 3.61176 13.2884 4.19445 12.773 4.95376C12.2575 5.71308 11.9877 6.61238 12 7.53005V8.53005C10.2426 8.57561 8.50127 8.18586 6.93101 7.39549C5.36074 6.60513 3.51032 4.72313 2.5 3.2845C2.5 3.2845 -1 13 8 17C5.94053 18.398 3.48716 19.099 1 19C10 24 21 19 21 7.50005C20.9991 7.2215 20.9723 6.94364 20.92 6.67005C21.9406 5.66354 22.6608 4.39276 23 3.00005Z" stroke="#111111" stroke-width="2" stroke-linecap="round" stroke-linejoin="round"/>
    </symbol>

    <svg xmlns="http://www.w3.org/2000/svg" width="32" height="32" viewBox="0 0 32 32" fill="none" id="chocolate">
        <path d="M13.822 2.41301L21.349 9.94901L21.429 9.86901C21.5867 9.71469 21.7978 9.6272 22.0184 9.62477C22.239 9.62235 22.452 9.70519 22.613 9.85601L22.619 9.86201L23.486 10.729C23.791 11.034 23.801 11.499 23.569 11.823L23.565 11.83L23.422 12.022L29.582 18.182C30.132 18.732 30.132 19.612 29.582 20.162L20.152 29.592C19.602 30.142 18.722 30.142 18.172 29.592L13.725 25.145C13.6512 25.2381 13.5584 25.3145 13.4529 25.3692C13.3474 25.4239 13.2316 25.4556 13.1129 25.4623C12.9943 25.469 12.8756 25.4505 12.7646 25.4081C12.6536 25.3656 12.5529 25.3002 12.469 25.216L9.86901 22.616C9.71469 22.4584 9.6272 22.2472 9.62477 22.0266C9.62235 21.806 9.70519 21.593 9.85601 21.432L9.86201 21.425L9.93901 21.349L2.41201 13.822C1.86201 13.272 1.86201 12.392 2.41201 11.842L11.842 2.41201C12.392 1.86201 13.272 1.86201 13.822 2.41201V2.41301ZM20.404 10.893L18.648 9.13801C18.5928 9.0811 18.5268 9.03585 18.4538 9.00495C18.3808 8.97405 18.3023 8.95813 18.223 8.95813C18.1437 8.95813 18.0653 8.97405 17.9923 9.00495C17.9193 9.03585 17.8532 9.0811 17.798 9.13801L14.218 12.718C14.1613 12.7743 14.1163 12.8413 14.0856 12.9151C14.0548 12.9889 14.039 13.0681 14.039 13.148C14.039 13.2279 14.0548 13.3071 14.0856 13.3809C14.1163 13.4547 14.1613 13.5217 14.218 13.578L15.967 15.327L16.577 14.717L15.012 13.152L18.222 9.93201L19.791 11.506L20.404 10.893ZM15.328 15.965L13.574 14.211C13.5188 14.1541 13.4528 14.1088 13.3798 14.0779C13.3068 14.047 13.2283 14.0311 13.149 14.0311C13.0697 14.0311 12.9913 14.047 12.9183 14.0779C12.8453 14.1088 12.7792 14.1541 12.724 14.211L9.14401 17.791L9.13901 17.796L9.13401 17.801C8.89401 18.031 8.89401 18.411 9.13401 18.651L10.886 20.403L11.502 19.787L9.93201 18.223L13.152 15.013L14.716 16.576L15.328 15.965ZM8.82201 8.19301L12.402 11.773C12.642 12.013 13.022 12.013 13.252 11.763L16.832 8.18301C16.8889 8.12884 16.9342 8.06368 16.9651 7.99148C16.9961 7.91929 17.012 7.84156 17.012 7.76301H17.022C17.022 7.61301 16.962 7.45301 16.842 7.33301L13.262 3.75301C13.2058 3.69617 13.1388 3.65105 13.065 3.62025C12.9912 3.58946 12.912 3.5736 12.832 3.5736C12.752 3.5736 12.6729 3.58946 12.599 3.62025C12.5252 3.65105 12.4583 3.69617 12.402 3.75301L8.82201 7.34301C8.58201 7.57301 8.58201 7.95301 8.82201 8.19301ZM3.75201 13.263L7.33201 16.843C7.57201 17.083 7.95201 17.083 8.18201 16.843L11.762 13.263C11.8201 13.2077 11.8661 13.1409 11.8971 13.0669C11.9281 12.9929 11.9434 12.9132 11.942 12.833H11.952C11.952 12.673 11.892 12.523 11.772 12.403L8.19201 8.82301C8.13683 8.7661 8.07077 8.72085 7.99776 8.68995C7.92476 8.65905 7.84629 8.64313 7.76701 8.64313C7.68774 8.64313 7.60927 8.65905 7.53626 8.68995C7.46326 8.72085 7.3972 8.7661 7.34201 8.82301L3.75201 12.413C3.51201 12.643 3.51201 13.023 3.75201 13.263ZM10.685 22.017L13.047 24.38L22.683 11.34L22.028 10.685L10.685 22.017Z" fill="black"/>
        <path d="M13.822 2.41301L21.349 9.94901L21.429 9.86901C21.5867 9.71469 21.7978 9.6272 22.0184 9.62477C22.239 9.62235 22.452 9.70519 22.613 9.85601L22.619 9.86201L23.486 10.729C23.791 11.034 23.801 11.499 23.569 11.823L23.565 11.83L23.422 12.022L29.582 18.182C30.132 18.732 30.132 19.612 29.582 20.162L20.152 29.592C19.602 30.142 18.722 30.142 18.172 29.592L13.725 25.145C13.6512 25.2381 13.5584 25.3145 13.4529 25.3692C13.3474 25.4239 13.2316 25.4556 13.1129 25.4623C12.9943 25.469 12.8756 25.4505 12.7646 25.4081C12.6536 25.3656 12.5529 25.3002 12.469 25.216L9.86901 22.616C9.71469 22.4584 9.6272 22.2472 9.62477 22.0266C9.62235 21.806 9.70519 21.593 9.85601 21.432L9.86201 21.425L9.93901 21.349L2.41201 13.822C1.86201 13.272 1.86201 12.392 2.41201 11.842L11.842 2.41201C12.392 1.86201 13.272 1.86201 13.822 2.41201V2.41301ZM20.404 10.893L18.648 9.13801C18.5928 9.0811 18.5268 9.03585 18.4538 9.00495C18.3808 8.97405 18.3023 8.95813 18.223 8.95813C18.1437 8.95813 18.0653 8.97405 17.9923 9.00495C17.9193 9.03585 17.8532 9.0811 17.798 9.13801L14.218 12.718C14.1613 12.7743 14.1163 12.8413 14.0856 12.9151C14.0548 12.9889 14.039 13.0681 14.039 13.148C14.039 13.2279 14.0548 13.3071 14.0856 13.3809C14.1163 13.4547 14.1613 13.5217 14.218 13.578L15.967 15.327L16.577 14.717L15.012 13.152L18.222 9.93201L19.791 11.506L20.404 10.893ZM15.328 15.965L13.574 14.211C13.5188 14.1541 13.4528 14.1088 13.3798 14.0779C13.3068 14.047 13.2283 14.0311 13.149 14.0311C13.0697 14.0311 12.9913 14.047 12.9183 14.0779C12.8453 14.1088 12.7792 14.1541 12.724 14.211L9.14401 17.791L9.13901 17.796L9.13401 17.801C8.89401 18.031 8.89401 18.411 9.13401 18.651L10.886 20.403L11.502 19.787L9.93201 18.223L13.152 15.013L14.716 16.576L15.328 15.965ZM8.82201 8.19301L12.402 11.773C12.642 12.013 13.022 12.013 13.252 11.763L16.832 8.18301C16.8889 8.12884 16.9342 8.06368 16.9651 7.99148C16.9961 7.91929 17.012 7.84156 17.012 7.76301H17.022C17.022 7.61301 16.962 7.45301 16.842 7.33301L13.262 3.75301C13.2058 3.69617 13.1388 3.65105 13.065 3.62025C12.9912 3.58946 12.912 3.5736 12.832 3.5736C12.752 3.5736 12.6729 3.58946 12.599 3.62025C12.5252 3.65105 12.4583 3.69617 12.402 3.75301L8.82201 7.34301C8.58201 7.57301 8.58201 7.95301 8.82201 8.19301ZM3.75201 13.263L7.33201 16.843C7.57201 17.083 7.95201 17.083 8.18201 16.843L11.762 13.263C11.8201 13.2077 11.8661 13.1409 11.8971 13.0669C11.9281 12.9929 11.9434 12.9132 11.942 12.833H11.952C11.952 12.673 11.892 12.523 11.772 12.403L8.19201 8.82301C8.13683 8.7661 8.07077 8.72085 7.99776 8.68995C7.92476 8.65905 7.84629 8.64313 7.76701 8.64313C7.68774 8.64313 7.60927 8.65905 7.53626 8.68995C7.46326 8.72085 7.3972 8.7661 7.34201 8.82301L3.75201 12.413C3.51201 12.643 3.51201 13.023 3.75201 13.263ZM10.685 22.017L13.047 24.38L22.683 11.34L22.028 10.685L10.685 22.017Z" fill="#FD9222"/>
    </symbol>

    <symbol xmlns="http://www.w3.org/2000/svg" width="28" height="28" viewBox="0 0 28 28" fill="none" id="coin">
        <path d="M13.9998 0.666748C6.6665 0.666748 0.666504 6.66675 0.666504 14.0001C0.666504 21.3334 6.6665 27.3334 13.9998 27.3334C21.3332 27.3334 27.3332 21.3334 27.3332 14.0001C27.3332 6.66675 21.3332 0.666748 13.9998 0.666748ZM13.9998 24.6667C8.13317 24.6667 3.33317 19.8667 3.33317 14.0001C3.33317 8.13341 8.13317 3.33341 13.9998 3.33341C19.8665 3.33341 24.6665 8.13341 24.6665 14.0001C24.6665 19.8667 19.8665 24.6667 13.9998 24.6667Z" fill="#FD9222"/>
        <path d="M15.7332 12.6667H12.2666C11.5999 12.6667 11.0666 12.1333 11.0666 11.4667C11.0666 10.8 11.5999 10.2667 12.2666 10.2667H17.1999C17.9999 10.2667 18.5332 9.73332 18.5332 8.93332C18.5332 8.13332 17.9999 7.59998 17.1999 7.59998H15.3332V6.39998C15.3332 5.59998 14.7999 5.06665 13.9999 5.06665C13.1999 5.06665 12.6666 5.59998 12.6666 6.39998V7.59998H12.2666C10.1332 7.59998 8.3999 9.33332 8.3999 11.4667C8.3999 13.6 10.1332 15.3333 12.2666 15.3333H15.5999C16.2666 15.3333 16.7999 15.8666 16.7999 16.5333C16.7999 17.2 16.2666 17.7333 15.5999 17.7333H10.6666C9.86657 17.7333 9.33324 18.2667 9.33324 19.0667C9.33324 19.8667 9.86657 20.4 10.6666 20.4H12.6666V21.6C12.6666 22.4 13.1999 22.9333 13.9999 22.9333C14.7999 22.9333 15.3332 22.4 15.3332 21.6V20.4H15.7332C17.8666 20.4 19.5999 18.6667 19.5999 16.5333C19.5999 14.4 17.8666 12.6667 15.7332 12.6667Z" fill="#FD9222"/>
    </symbol>

    <symbol xmlns="http://www.w3.org/2000/svg" width="32" height="32" viewBox="0 0 32 32" fill="none" id="spoon">
        <path d="M15.4514 14.106C14.6688 13.156 14.2748 11.99 14.2748 10.8241C14.2748 6.50028 19.4559 2.18188 24.6369 2.18188C27.4973 2.18188 29.818 4.50302 29.818 7.36396C29.818 12.546 25.5005 17.7281 21.1721 17.7281C20.0064 17.7281 18.8406 17.334 17.8908 16.5513L5.13242 29.3122C4.4578 29.9869 3.36222 29.9869 2.6876 29.3122C2.01299 28.6374 2.01299 27.5416 2.6876 26.8669L15.4514 14.106Z" fill="#FD9222"/>
    </symbol>

    <symbol xmlns="http://www.w3.org/2000/svg" width="22" height="22" viewBox="0 0 22 22"  id="arrowbig">
        <path d="M11.6512 12.2834C11.566 12.3693 11.4646 12.4375 11.3529 12.484C11.2412 12.5306 11.1214 12.5545 11.0004 12.5545C10.8794 12.5545 10.7596 12.5306 10.6479 12.484C10.5362 12.4375 10.4348 12.3693 10.3496 12.2834L6.15124 8.07588C6.06602 7.98996 5.96464 7.92177 5.85293 7.87523C5.74123 7.82869 5.62141 7.80473 5.5004 7.80473C5.37939 7.80473 5.25958 7.82869 5.14787 7.87523C5.03617 7.92177 4.93478 7.98996 4.84957 8.07588C4.67884 8.24763 4.58301 8.47996 4.58301 8.72213C4.58301 8.9643 4.67884 9.19663 4.84957 9.36838L9.05707 13.5759C9.5727 14.0909 10.2717 14.3801 11.0004 14.3801C11.7292 14.3801 12.4281 14.0909 12.9437 13.5759L17.1512 9.36838C17.3206 9.19764 17.4161 8.96719 17.4171 8.72671C17.4178 8.60607 17.3947 8.48648 17.349 8.3748C17.3034 8.26311 17.2362 8.16153 17.1512 8.07588C17.066 7.98996 16.9647 7.92177 16.8529 7.87523C16.7412 7.82869 16.6214 7.80473 16.5004 7.80473C16.3794 7.80473 16.2596 7.82869 16.1479 7.87523C16.0362 7.92177 15.9348 7.98996 15.8496 8.07588L11.6512 12.2834Z" >
    </symbol>

    <symbol xmlns="http://www.w3.org/2000/svg" width="16" height="16" viewBox="0 0 16 16" fill="none" id="arrowsmall">
        <path d="M8.47305 8.93359C8.41108 8.99607 8.33734 9.04567 8.2561 9.07952C8.17486 9.11336 8.08773 9.13079 7.99972 9.13079C7.91171 9.13079 7.82457 9.11336 7.74333 9.07952C7.6621 9.04567 7.58836 8.99607 7.52639 8.93359L4.47305 5.87359C4.41107 5.8111 4.33734 5.76151 4.2561 5.72766C4.17486 5.69381 4.08772 5.67639 3.99972 5.67639C3.91171 5.67639 3.82457 5.69381 3.74333 5.72766C3.66209 5.76151 3.58836 5.8111 3.52638 5.87359C3.40221 5.9985 3.33252 6.16746 3.33252 6.34359C3.33252 6.51971 3.40221 6.68868 3.52638 6.81359L6.58638 9.87359C6.96139 10.2481 7.46972 10.4585 7.99972 10.4585C8.52972 10.4585 9.03805 10.2481 9.41305 9.87359L12.4731 6.81359C12.5962 6.68941 12.6657 6.52182 12.6664 6.34692C12.6669 6.25918 12.6501 6.17221 12.6169 6.09098C12.5837 6.00976 12.5348 5.93588 12.4731 5.87359C12.4111 5.8111 12.3373 5.76151 12.2561 5.72766C12.1749 5.69381 12.0877 5.67639 11.9997 5.67639C11.9117 5.67639 11.8246 5.69381 11.7433 5.72766C11.6621 5.76151 11.5884 5.8111 11.5264 5.87359L8.47305 8.93359Z" fill="#FD9222"/>
    </symbol>

    <svg xmlns="http://www.w3.org/2000/svg" width="22" height="22" viewBox="0 0 22 22" fill="none" id="arrow">
        <path d="M11.6512 12.2834C11.566 12.3693 11.4646 12.4375 11.3529 12.484C11.2412 12.5306 11.1214 12.5545 11.0004 12.5545C10.8794 12.5545 10.7596 12.5306 10.6479 12.484C10.5362 12.4375 10.4348 12.3693 10.3496 12.2834L6.15124 8.07588C6.06602 7.98996 5.96464 7.92177 5.85293 7.87523C5.74123 7.82869 5.62141 7.80473 5.5004 7.80473C5.37939 7.80473 5.25958 7.82869 5.14787 7.87523C5.03617 7.92177 4.93478 7.98996 4.84957 8.07588C4.67884 8.24763 4.58301 8.47996 4.58301 8.72213C4.58301 8.9643 4.67884 9.19663 4.84957 9.36838L9.05707 13.5759C9.5727 14.0909 10.2717 14.3801 11.0004 14.3801C11.7292 14.3801 12.4281 14.0909 12.9437 13.5759L17.1512 9.36838C17.3206 9.19764 17.4161 8.96719 17.4171 8.72671C17.4178 8.60607 17.3947 8.48648 17.349 8.3748C17.3034 8.26311 17.2362 8.16153 17.1512 8.07588C17.066 7.98996 16.9647 7.92177 16.8529 7.87523C16.7412 7.82869 16.6214 7.80473 16.5004 7.80473C16.3794 7.80473 16.2596 7.82869 16.1479 7.87523C16.0362 7.92177 15.9348 7.98996 15.8496 8.07588L11.6512 12.2834Z" fill="white"/>
    </svg>

    <symbol xmlns="http://www.w3.org/2000/svg" width="28" height="28" viewBox="0 0 28 28" fill="none" id="xblack">
        <path d="M21 7L7 21"  stroke-width="2" stroke-linecap="round" stroke-linejoin="round"/>
        <path d="M7 7L21 21" stroke-width="2" stroke-linecap="round" stroke-linejoin="round"/>
    </symbol>

    <symbol xmlns="http://www.w3.org/2000/svg" width="28" height="28" viewBox="0 0 28 28" fill="none" id="xorange">
        <path d="M21 7L7 21" stroke="#FD9222" stroke-width="2" stroke-linecap="round" stroke-linejoin="round"/>
        <path d="M7 7L21 21" stroke="#FD9222" stroke-width="2" stroke-linecap="round" stroke-linejoin="round"/>
    </symbol>

    <symbol xmlns="http://www.w3.org/2000/svg" width="32" height="32" viewBox="0 0 32 32" fill="none" id="hamburgerthick">
        <path d="M4 16H28M4 8H28M4 24H28" stroke="#111111" stroke-width="2.5" stroke-linecap="round" stroke-linejoin="round"/>
    </symbol>

    <symbol xmlns="http://www.w3.org/2000/svg" width="28" height="28" viewBox="0 0 28 28" fill="none" id="hamburgerthin">
        <path d="M3.5 14H24.5M3.5 7H24.5M3.5 21H24.5" stroke="#111111" stroke-width="2" stroke-linecap="round" stroke-linejoin="round"/>
    </symbol>

      <symbol fill="none" viewBox="0 0 24 19" id="flag" xmlns="http://www.w3.org/2000/svg">
<g clip-path="url(#aa)">
<path d="M23.874.294H.182v17.631h23.692V.294Z" fill="gold"/>
<path fill-rule="evenodd" clip-rule="evenodd" d="M.182.294h23.692V9.11H.182V.294Z" fill="#0057B7"/>
</g>
<defs>
<clipPath id="aa">
<path fill="#fff" transform="translate(0 .1)" d="M0 0h24v18H0z"/>
</clipPath>
</defs>
</symbol>

</svg>